M48
; DRILL file {KiCad (5.1.5)-3} date 7/10/2020 5:57:26 PM
; FORMAT={-:-/ absolute / inch / decimal}
; #@! TF.CreationDate,2020-07-10T17:57:26-06:00
; #@! TF.GenerationSoftware,Kicad,Pcbnew,(5.1.5)-3
FMAT,2
INCH
T1C0.0079
T2C0.0157
T3C0.0197
T4C0.0300
T5C0.0315
T6C0.0984
T7C0.0394
%
G90
G05
T1
X4.4717Y-5.1687
X4.4717Y-5.212
X4.4717Y-5.2553
X4.515Y-5.1687
X4.515Y-5.212
X4.515Y-5.2553
X4.5583Y-5.1687
X4.5583Y-5.212
X4.5583Y-5.2553
T2
X2.611Y-5.394
X2.662Y-5.568
X2.6675Y-4.85
X2.7525Y-5.045
X2.815Y-4.44
X2.895Y-4.315
X2.96Y-4.315
X3.025Y-4.315
X3.0259Y-5.5
X3.027Y-5.3
X3.1Y-4.77
X3.1Y-4.825
X3.1Y-4.88
X3.1075Y-5.5875
X3.19Y-5.4985
X3.195Y-5.435
X3.196Y-5.69
X3.246Y-5.584
X3.25Y-4.835
X3.2547Y-5.3802
X3.335Y-5.0425
X3.432Y-5.445
X3.605Y-5.4975
X3.608Y-5.3
X3.6625Y-4.8275
X3.6625Y-4.875
X3.6675Y-4.7725
X3.675Y-4.545
X3.818Y-4.392
X4.015Y-5.165
X4.305Y-5.335
X4.364Y-5.224
X4.4Y-4.418
X4.545Y-5.025
X4.5475Y-4.9725
X4.55Y-5.0825
X4.7325Y-3.85
X4.77Y-3.9475
X4.81Y-5.54
X4.815Y-3.98
X4.9925Y-4.1725
X4.995Y-4.35
X5.084Y-5.266
X5.112Y-5.547
X5.186Y-5.522
X5.2425Y-3.82
X5.286Y-5.522
X5.288Y-5.428
X5.315Y-4.29
X5.328Y-5.127
X5.342Y-5.71
X5.416Y-5.065
X5.4675Y-4.0875
X5.482Y-4.622
X5.4825Y-4.4925
X5.558Y-5.58
X5.6305Y-4.2875
X5.6475Y-5.495
T4
X5.4325Y-3.9425
X5.4325Y-4.0125
T5
X4.25Y-3.85
X4.25Y-3.95
X4.25Y-4.05
X4.25Y-4.15
X4.25Y-4.25
X4.45Y-3.85
X4.45Y-3.95
X4.45Y-4.05
X4.45Y-4.15
X4.45Y-4.25
X3.5Y-3.85
X3.5Y-3.95
X3.5Y-4.05
X3.5Y-4.15
X3.5Y-4.25
X3.7Y-3.85
X3.7Y-3.95
X3.7Y-4.05
X3.7Y-4.15
X3.7Y-4.25
T6
X5.65Y-5.81
X2.565Y-3.62
X2.555Y-5.81
X5.645Y-3.625
T7
X5.7083Y-4.3646
X5.7083Y-4.6323
T3
G00X5.7037Y-3.8651
M15
G01X5.7313Y-3.8651
M16
G05
G00X5.7037Y-4.1249
M15
G01X5.7313Y-4.1249
M16
G05
T0
M30
