G04 #@! TF.GenerationSoftware,KiCad,Pcbnew,(5.1.5)-3*
G04 #@! TF.CreationDate,2020-07-10T17:57:17-06:00*
G04 #@! TF.ProjectId,CounterProject,436f756e-7465-4725-9072-6f6a6563742e,rev?*
G04 #@! TF.SameCoordinates,Original*
G04 #@! TF.FileFunction,Legend,Bot*
G04 #@! TF.FilePolarity,Positive*
%FSLAX46Y46*%
G04 Gerber Fmt 4.6, Leading zero omitted, Abs format (unit mm)*
G04 Created by KiCad (PCBNEW (5.1.5)-3) date 2020-07-10 17:57:17*
%MOMM*%
%LPD*%
G04 APERTURE LIST*
%ADD10C,0.120000*%
%ADD11C,0.150000*%
G04 APERTURE END LIST*
D10*
X126123700Y-134444740D02*
X126103380Y-128444740D01*
X132473700Y-134412240D02*
X132473700Y-128412240D01*
X132704959Y-142516320D02*
X132379401Y-142516320D01*
X132704959Y-141496320D02*
X132379401Y-141496320D01*
X140409200Y-124038579D02*
X140409200Y-123713021D01*
X141429200Y-124038579D02*
X141429200Y-123713021D01*
X136311521Y-137920000D02*
X136637079Y-137920000D01*
X136311521Y-138940000D02*
X136637079Y-138940000D01*
X137661880Y-135605520D02*
G75*
G03X137661880Y-135605520I-700000J0D01*
G01*
X142203400Y-127228600D02*
G75*
G03X142203400Y-127228600I-700000J0D01*
G01*
X136700800Y-143035339D02*
X136700800Y-142709781D01*
X137720800Y-143035339D02*
X137720800Y-142709781D01*
X132374321Y-143228600D02*
X132699879Y-143228600D01*
X132374321Y-144248600D02*
X132699879Y-144248600D01*
X136878600Y-125638879D02*
X136878600Y-125313321D01*
X137898600Y-125638879D02*
X137898600Y-125313321D01*
X135062500Y-125638679D02*
X135062500Y-125313121D01*
X136082500Y-125638679D02*
X136082500Y-125313121D01*
X136637079Y-140743400D02*
X136311521Y-140743400D01*
X136637079Y-139723400D02*
X136311521Y-139723400D01*
X138707400Y-125638879D02*
X138707400Y-125313321D01*
X139727400Y-125638879D02*
X139727400Y-125313321D01*
D11*
X129299601Y-132717706D02*
X129347220Y-132860563D01*
X129347220Y-133098659D01*
X129299601Y-133193897D01*
X129251982Y-133241516D01*
X129156744Y-133289135D01*
X129061506Y-133289135D01*
X128966268Y-133241516D01*
X128918649Y-133193897D01*
X128871030Y-133098659D01*
X128823411Y-132908182D01*
X128775792Y-132812944D01*
X128728173Y-132765325D01*
X128632935Y-132717706D01*
X128537697Y-132717706D01*
X128442459Y-132765325D01*
X128394840Y-132812944D01*
X128347220Y-132908182D01*
X128347220Y-133146278D01*
X128394840Y-133289135D01*
X128347220Y-133622468D02*
X129347220Y-133860563D01*
X128632935Y-134051040D01*
X129347220Y-134241516D01*
X128347220Y-134479611D01*
X128347220Y-134765325D02*
X128347220Y-135384373D01*
X128728173Y-135051040D01*
X128728173Y-135193897D01*
X128775792Y-135289135D01*
X128823411Y-135336754D01*
X128918649Y-135384373D01*
X129156744Y-135384373D01*
X129251982Y-135336754D01*
X129299601Y-135289135D01*
X129347220Y-135193897D01*
X129347220Y-134908182D01*
X129299601Y-134812944D01*
X129251982Y-134765325D01*
X130040617Y-142580620D02*
X130373950Y-142104430D01*
X130612045Y-142580620D02*
X130612045Y-141580620D01*
X130231093Y-141580620D01*
X130135855Y-141628240D01*
X130088236Y-141675859D01*
X130040617Y-141771097D01*
X130040617Y-141913954D01*
X130088236Y-142009192D01*
X130135855Y-142056811D01*
X130231093Y-142104430D01*
X130612045Y-142104430D01*
X129707283Y-141580620D02*
X129088236Y-141580620D01*
X129421569Y-141961573D01*
X129278712Y-141961573D01*
X129183474Y-142009192D01*
X129135855Y-142056811D01*
X129088236Y-142152049D01*
X129088236Y-142390144D01*
X129135855Y-142485382D01*
X129183474Y-142533001D01*
X129278712Y-142580620D01*
X129564426Y-142580620D01*
X129659664Y-142533001D01*
X129707283Y-142485382D01*
X128612045Y-142580620D02*
X128421569Y-142580620D01*
X128326331Y-142533001D01*
X128278712Y-142485382D01*
X128183474Y-142342525D01*
X128135855Y-142152049D01*
X128135855Y-141771097D01*
X128183474Y-141675859D01*
X128231093Y-141628240D01*
X128326331Y-141580620D01*
X128516807Y-141580620D01*
X128612045Y-141628240D01*
X128659664Y-141675859D01*
X128707283Y-141771097D01*
X128707283Y-142009192D01*
X128659664Y-142104430D01*
X128612045Y-142152049D01*
X128516807Y-142199668D01*
X128326331Y-142199668D01*
X128231093Y-142152049D01*
X128183474Y-142104430D01*
X128135855Y-142009192D01*
X142801580Y-123232942D02*
X142325390Y-122899609D01*
X142801580Y-122661514D02*
X141801580Y-122661514D01*
X141801580Y-123042466D01*
X141849200Y-123137704D01*
X141896819Y-123185323D01*
X141992057Y-123232942D01*
X142134914Y-123232942D01*
X142230152Y-123185323D01*
X142277771Y-123137704D01*
X142325390Y-123042466D01*
X142325390Y-122661514D01*
X141801580Y-123566276D02*
X141801580Y-124185323D01*
X142182533Y-123851990D01*
X142182533Y-123994847D01*
X142230152Y-124090085D01*
X142277771Y-124137704D01*
X142373009Y-124185323D01*
X142611104Y-124185323D01*
X142706342Y-124137704D01*
X142753961Y-124090085D01*
X142801580Y-123994847D01*
X142801580Y-123709133D01*
X142753961Y-123613895D01*
X142706342Y-123566276D01*
X142230152Y-124756752D02*
X142182533Y-124661514D01*
X142134914Y-124613895D01*
X142039676Y-124566276D01*
X141992057Y-124566276D01*
X141896819Y-124613895D01*
X141849200Y-124661514D01*
X141801580Y-124756752D01*
X141801580Y-124947228D01*
X141849200Y-125042466D01*
X141896819Y-125090085D01*
X141992057Y-125137704D01*
X142039676Y-125137704D01*
X142134914Y-125090085D01*
X142182533Y-125042466D01*
X142230152Y-124947228D01*
X142230152Y-124756752D01*
X142277771Y-124661514D01*
X142325390Y-124613895D01*
X142420628Y-124566276D01*
X142611104Y-124566276D01*
X142706342Y-124613895D01*
X142753961Y-124661514D01*
X142801580Y-124756752D01*
X142801580Y-124947228D01*
X142753961Y-125042466D01*
X142706342Y-125090085D01*
X142611104Y-125137704D01*
X142420628Y-125137704D01*
X142325390Y-125090085D01*
X142277771Y-125042466D01*
X142230152Y-124947228D01*
X140261777Y-138944622D02*
X140309396Y-138992241D01*
X140452253Y-139039860D01*
X140547491Y-139039860D01*
X140690348Y-138992241D01*
X140785586Y-138897003D01*
X140833205Y-138801765D01*
X140880824Y-138611289D01*
X140880824Y-138468432D01*
X140833205Y-138277956D01*
X140785586Y-138182718D01*
X140690348Y-138087480D01*
X140547491Y-138039860D01*
X140452253Y-138039860D01*
X140309396Y-138087480D01*
X140261777Y-138135099D01*
X139404634Y-138373194D02*
X139404634Y-139039860D01*
X139642729Y-137992241D02*
X139880824Y-138706527D01*
X139261777Y-138706527D01*
X138404634Y-138039860D02*
X138880824Y-138039860D01*
X138928443Y-138516051D01*
X138880824Y-138468432D01*
X138785586Y-138420813D01*
X138547491Y-138420813D01*
X138452253Y-138468432D01*
X138404634Y-138516051D01*
X138357015Y-138611289D01*
X138357015Y-138849384D01*
X138404634Y-138944622D01*
X138452253Y-138992241D01*
X138547491Y-139039860D01*
X138785586Y-139039860D01*
X138880824Y-138992241D01*
X138928443Y-138944622D01*
X140433584Y-133386580D02*
X139862156Y-133386580D01*
X140147870Y-134386580D02*
X140147870Y-133386580D01*
X139528822Y-134386580D02*
X139528822Y-133386580D01*
X139147870Y-133386580D01*
X139052632Y-133434200D01*
X139005013Y-133481819D01*
X138957394Y-133577057D01*
X138957394Y-133719914D01*
X139005013Y-133815152D01*
X139052632Y-133862771D01*
X139147870Y-133910390D01*
X139528822Y-133910390D01*
X138624060Y-133386580D02*
X138005013Y-133386580D01*
X138338346Y-133767533D01*
X138195489Y-133767533D01*
X138100251Y-133815152D01*
X138052632Y-133862771D01*
X138005013Y-133958009D01*
X138005013Y-134196104D01*
X138052632Y-134291342D01*
X138100251Y-134338961D01*
X138195489Y-134386580D01*
X138481203Y-134386580D01*
X138576441Y-134338961D01*
X138624060Y-134291342D01*
X145051304Y-125537980D02*
X144479876Y-125537980D01*
X144765590Y-126537980D02*
X144765590Y-125537980D01*
X144146542Y-126537980D02*
X144146542Y-125537980D01*
X143765590Y-125537980D01*
X143670352Y-125585600D01*
X143622733Y-125633219D01*
X143575114Y-125728457D01*
X143575114Y-125871314D01*
X143622733Y-125966552D01*
X143670352Y-126014171D01*
X143765590Y-126061790D01*
X144146542Y-126061790D01*
X143194161Y-125633219D02*
X143146542Y-125585600D01*
X143051304Y-125537980D01*
X142813209Y-125537980D01*
X142717971Y-125585600D01*
X142670352Y-125633219D01*
X142622733Y-125728457D01*
X142622733Y-125823695D01*
X142670352Y-125966552D01*
X143241780Y-126537980D01*
X142622733Y-126537980D01*
X137612380Y-145275062D02*
X137136190Y-144941729D01*
X137612380Y-144703634D02*
X136612380Y-144703634D01*
X136612380Y-145084586D01*
X136660000Y-145179824D01*
X136707619Y-145227443D01*
X136802857Y-145275062D01*
X136945714Y-145275062D01*
X137040952Y-145227443D01*
X137088571Y-145179824D01*
X137136190Y-145084586D01*
X137136190Y-144703634D01*
X136707619Y-145656015D02*
X136660000Y-145703634D01*
X136612380Y-145798872D01*
X136612380Y-146036967D01*
X136660000Y-146132205D01*
X136707619Y-146179824D01*
X136802857Y-146227443D01*
X136898095Y-146227443D01*
X137040952Y-146179824D01*
X137612380Y-145608396D01*
X137612380Y-146227443D01*
X136612380Y-146846491D02*
X136612380Y-146941729D01*
X136660000Y-147036967D01*
X136707619Y-147084586D01*
X136802857Y-147132205D01*
X136993333Y-147179824D01*
X137231428Y-147179824D01*
X137421904Y-147132205D01*
X137517142Y-147084586D01*
X137564761Y-147036967D01*
X137612380Y-146941729D01*
X137612380Y-146846491D01*
X137564761Y-146751253D01*
X137517142Y-146703634D01*
X137421904Y-146656015D01*
X137231428Y-146608396D01*
X136993333Y-146608396D01*
X136802857Y-146656015D01*
X136707619Y-146703634D01*
X136660000Y-146751253D01*
X136612380Y-146846491D01*
X130137037Y-144348460D02*
X130470370Y-143872270D01*
X130708465Y-144348460D02*
X130708465Y-143348460D01*
X130327513Y-143348460D01*
X130232275Y-143396080D01*
X130184656Y-143443699D01*
X130137037Y-143538937D01*
X130137037Y-143681794D01*
X130184656Y-143777032D01*
X130232275Y-143824651D01*
X130327513Y-143872270D01*
X130708465Y-143872270D01*
X129184656Y-144348460D02*
X129756084Y-144348460D01*
X129470370Y-144348460D02*
X129470370Y-143348460D01*
X129565608Y-143491318D01*
X129660846Y-143586556D01*
X129756084Y-143634175D01*
X128708465Y-144348460D02*
X128517989Y-144348460D01*
X128422751Y-144300841D01*
X128375132Y-144253222D01*
X128279894Y-144110365D01*
X128232275Y-143919889D01*
X128232275Y-143538937D01*
X128279894Y-143443699D01*
X128327513Y-143396080D01*
X128422751Y-143348460D01*
X128613227Y-143348460D01*
X128708465Y-143396080D01*
X128756084Y-143443699D01*
X128803703Y-143538937D01*
X128803703Y-143777032D01*
X128756084Y-143872270D01*
X128708465Y-143919889D01*
X128613227Y-143967508D01*
X128422751Y-143967508D01*
X128327513Y-143919889D01*
X128279894Y-143872270D01*
X128232275Y-143777032D01*
X137934960Y-127988022D02*
X137458770Y-127654689D01*
X137934960Y-127416594D02*
X136934960Y-127416594D01*
X136934960Y-127797546D01*
X136982580Y-127892784D01*
X137030199Y-127940403D01*
X137125437Y-127988022D01*
X137268294Y-127988022D01*
X137363532Y-127940403D01*
X137411151Y-127892784D01*
X137458770Y-127797546D01*
X137458770Y-127416594D01*
X137934960Y-128940403D02*
X137934960Y-128368975D01*
X137934960Y-128654689D02*
X136934960Y-128654689D01*
X137077818Y-128559451D01*
X137173056Y-128464213D01*
X137220675Y-128368975D01*
X137363532Y-129511832D02*
X137315913Y-129416594D01*
X137268294Y-129368975D01*
X137173056Y-129321356D01*
X137125437Y-129321356D01*
X137030199Y-129368975D01*
X136982580Y-129416594D01*
X136934960Y-129511832D01*
X136934960Y-129702308D01*
X136982580Y-129797546D01*
X137030199Y-129845165D01*
X137125437Y-129892784D01*
X137173056Y-129892784D01*
X137268294Y-129845165D01*
X137315913Y-129797546D01*
X137363532Y-129702308D01*
X137363532Y-129511832D01*
X137411151Y-129416594D01*
X137458770Y-129368975D01*
X137554008Y-129321356D01*
X137744484Y-129321356D01*
X137839722Y-129368975D01*
X137887341Y-129416594D01*
X137934960Y-129511832D01*
X137934960Y-129702308D01*
X137887341Y-129797546D01*
X137839722Y-129845165D01*
X137744484Y-129892784D01*
X137554008Y-129892784D01*
X137458770Y-129845165D01*
X137411151Y-129797546D01*
X137363532Y-129702308D01*
X136062980Y-128155462D02*
X135586790Y-127822129D01*
X136062980Y-127584034D02*
X135062980Y-127584034D01*
X135062980Y-127964986D01*
X135110600Y-128060224D01*
X135158219Y-128107843D01*
X135253457Y-128155462D01*
X135396314Y-128155462D01*
X135491552Y-128107843D01*
X135539171Y-128060224D01*
X135586790Y-127964986D01*
X135586790Y-127584034D01*
X136062980Y-129107843D02*
X136062980Y-128536415D01*
X136062980Y-128822129D02*
X135062980Y-128822129D01*
X135205838Y-128726891D01*
X135301076Y-128631653D01*
X135348695Y-128536415D01*
X135062980Y-129441177D02*
X135062980Y-130107843D01*
X136062980Y-129679272D01*
X139307866Y-140455922D02*
X139355485Y-140503541D01*
X139498342Y-140551160D01*
X139593580Y-140551160D01*
X139736438Y-140503541D01*
X139831676Y-140408303D01*
X139879295Y-140313065D01*
X139926914Y-140122589D01*
X139926914Y-139979732D01*
X139879295Y-139789256D01*
X139831676Y-139694018D01*
X139736438Y-139598780D01*
X139593580Y-139551160D01*
X139498342Y-139551160D01*
X139355485Y-139598780D01*
X139307866Y-139646399D01*
X138974533Y-139551160D02*
X138355485Y-139551160D01*
X138688819Y-139932113D01*
X138545961Y-139932113D01*
X138450723Y-139979732D01*
X138403104Y-140027351D01*
X138355485Y-140122589D01*
X138355485Y-140360684D01*
X138403104Y-140455922D01*
X138450723Y-140503541D01*
X138545961Y-140551160D01*
X138831676Y-140551160D01*
X138926914Y-140503541D01*
X138974533Y-140455922D01*
X139742182Y-127971353D02*
X139789801Y-127923734D01*
X139837420Y-127780877D01*
X139837420Y-127685639D01*
X139789801Y-127542781D01*
X139694563Y-127447543D01*
X139599325Y-127399924D01*
X139408849Y-127352305D01*
X139265992Y-127352305D01*
X139075516Y-127399924D01*
X138980278Y-127447543D01*
X138885040Y-127542781D01*
X138837420Y-127685639D01*
X138837420Y-127780877D01*
X138885040Y-127923734D01*
X138932659Y-127971353D01*
X138932659Y-128352305D02*
X138885040Y-128399924D01*
X138837420Y-128495162D01*
X138837420Y-128733258D01*
X138885040Y-128828496D01*
X138932659Y-128876115D01*
X139027897Y-128923734D01*
X139123135Y-128923734D01*
X139265992Y-128876115D01*
X139837420Y-128304686D01*
X139837420Y-128923734D01*
M02*
