G04 #@! TF.GenerationSoftware,KiCad,Pcbnew,(5.1.5)-3*
G04 #@! TF.CreationDate,2020-07-10T17:57:17-06:00*
G04 #@! TF.ProjectId,CounterProject,436f756e-7465-4725-9072-6f6a6563742e,rev?*
G04 #@! TF.SameCoordinates,Original*
G04 #@! TF.FileFunction,Soldermask,Bot*
G04 #@! TF.FilePolarity,Negative*
%FSLAX46Y46*%
G04 Gerber Fmt 4.6, Leading zero omitted, Abs format (unit mm)*
G04 Created by KiCad (PCBNEW (5.1.5)-3) date 2020-07-10 17:57:17*
%MOMM*%
%LPD*%
G04 APERTURE LIST*
%ADD10C,0.100000*%
G04 APERTURE END LIST*
D10*
G36*
X144254098Y-145121033D02*
G01*
X144718350Y-145313332D01*
X144718352Y-145313333D01*
X145136168Y-145592509D01*
X145491491Y-145947832D01*
X145770667Y-146365648D01*
X145770668Y-146365650D01*
X145962967Y-146829902D01*
X146061000Y-147322747D01*
X146061000Y-147825253D01*
X145962967Y-148318098D01*
X145770668Y-148782350D01*
X145770667Y-148782352D01*
X145491491Y-149200168D01*
X145136168Y-149555491D01*
X144718352Y-149834667D01*
X144718351Y-149834668D01*
X144718350Y-149834668D01*
X144254098Y-150026967D01*
X143761253Y-150125000D01*
X143258747Y-150125000D01*
X142765902Y-150026967D01*
X142301650Y-149834668D01*
X142301649Y-149834668D01*
X142301648Y-149834667D01*
X141883832Y-149555491D01*
X141528509Y-149200168D01*
X141249333Y-148782352D01*
X141249332Y-148782350D01*
X141057033Y-148318098D01*
X140959000Y-147825253D01*
X140959000Y-147322747D01*
X141057033Y-146829902D01*
X141249332Y-146365650D01*
X141249333Y-146365648D01*
X141528509Y-145947832D01*
X141883832Y-145592509D01*
X142301648Y-145313333D01*
X142301650Y-145313332D01*
X142765902Y-145121033D01*
X143258747Y-145023000D01*
X143761253Y-145023000D01*
X144254098Y-145121033D01*
G37*
G36*
X65641098Y-145121033D02*
G01*
X66105350Y-145313332D01*
X66105352Y-145313333D01*
X66523168Y-145592509D01*
X66878491Y-145947832D01*
X67157667Y-146365648D01*
X67157668Y-146365650D01*
X67349967Y-146829902D01*
X67448000Y-147322747D01*
X67448000Y-147825253D01*
X67349967Y-148318098D01*
X67157668Y-148782350D01*
X67157667Y-148782352D01*
X66878491Y-149200168D01*
X66523168Y-149555491D01*
X66105352Y-149834667D01*
X66105351Y-149834668D01*
X66105350Y-149834668D01*
X65641098Y-150026967D01*
X65148253Y-150125000D01*
X64645747Y-150125000D01*
X64152902Y-150026967D01*
X63688650Y-149834668D01*
X63688649Y-149834668D01*
X63688648Y-149834667D01*
X63270832Y-149555491D01*
X62915509Y-149200168D01*
X62636333Y-148782352D01*
X62636332Y-148782350D01*
X62444033Y-148318098D01*
X62346000Y-147825253D01*
X62346000Y-147322747D01*
X62444033Y-146829902D01*
X62636332Y-146365650D01*
X62636333Y-146365648D01*
X62915509Y-145947832D01*
X63270832Y-145592509D01*
X63688648Y-145313333D01*
X63688650Y-145313332D01*
X64152902Y-145121033D01*
X64645747Y-145023000D01*
X65148253Y-145023000D01*
X65641098Y-145121033D01*
G37*
G36*
X132091691Y-143216685D02*
G01*
X132125669Y-143226993D01*
X132156990Y-143243734D01*
X132184439Y-143266261D01*
X132206966Y-143293710D01*
X132223707Y-143325031D01*
X132234015Y-143359009D01*
X132238100Y-143400490D01*
X132238100Y-144076710D01*
X132234015Y-144118191D01*
X132223707Y-144152169D01*
X132206966Y-144183490D01*
X132184439Y-144210939D01*
X132156990Y-144233466D01*
X132125669Y-144250207D01*
X132091691Y-144260515D01*
X132050210Y-144264600D01*
X131448990Y-144264600D01*
X131407509Y-144260515D01*
X131373531Y-144250207D01*
X131342210Y-144233466D01*
X131314761Y-144210939D01*
X131292234Y-144183490D01*
X131275493Y-144152169D01*
X131265185Y-144118191D01*
X131261100Y-144076710D01*
X131261100Y-143400490D01*
X131265185Y-143359009D01*
X131275493Y-143325031D01*
X131292234Y-143293710D01*
X131314761Y-143266261D01*
X131342210Y-143243734D01*
X131373531Y-143226993D01*
X131407509Y-143216685D01*
X131448990Y-143212600D01*
X132050210Y-143212600D01*
X132091691Y-143216685D01*
G37*
G36*
X133666691Y-143216685D02*
G01*
X133700669Y-143226993D01*
X133731990Y-143243734D01*
X133759439Y-143266261D01*
X133781966Y-143293710D01*
X133798707Y-143325031D01*
X133809015Y-143359009D01*
X133813100Y-143400490D01*
X133813100Y-144076710D01*
X133809015Y-144118191D01*
X133798707Y-144152169D01*
X133781966Y-144183490D01*
X133759439Y-144210939D01*
X133731990Y-144233466D01*
X133700669Y-144250207D01*
X133666691Y-144260515D01*
X133625210Y-144264600D01*
X133023990Y-144264600D01*
X132982509Y-144260515D01*
X132948531Y-144250207D01*
X132917210Y-144233466D01*
X132889761Y-144210939D01*
X132867234Y-144183490D01*
X132850493Y-144152169D01*
X132840185Y-144118191D01*
X132836100Y-144076710D01*
X132836100Y-143400490D01*
X132840185Y-143359009D01*
X132850493Y-143325031D01*
X132867234Y-143293710D01*
X132889761Y-143266261D01*
X132917210Y-143243734D01*
X132948531Y-143226993D01*
X132982509Y-143216685D01*
X133023990Y-143212600D01*
X133625210Y-143212600D01*
X133666691Y-143216685D01*
G37*
G36*
X137590391Y-143175645D02*
G01*
X137624369Y-143185953D01*
X137655690Y-143202694D01*
X137683139Y-143225221D01*
X137705666Y-143252670D01*
X137722407Y-143283991D01*
X137732715Y-143317969D01*
X137736800Y-143359450D01*
X137736800Y-143960670D01*
X137732715Y-144002151D01*
X137722407Y-144036129D01*
X137705666Y-144067450D01*
X137683139Y-144094899D01*
X137655690Y-144117426D01*
X137624369Y-144134167D01*
X137590391Y-144144475D01*
X137548910Y-144148560D01*
X136872690Y-144148560D01*
X136831209Y-144144475D01*
X136797231Y-144134167D01*
X136765910Y-144117426D01*
X136738461Y-144094899D01*
X136715934Y-144067450D01*
X136699193Y-144036129D01*
X136688885Y-144002151D01*
X136684800Y-143960670D01*
X136684800Y-143359450D01*
X136688885Y-143317969D01*
X136699193Y-143283991D01*
X136715934Y-143252670D01*
X136738461Y-143225221D01*
X136765910Y-143202694D01*
X136797231Y-143185953D01*
X136831209Y-143175645D01*
X136872690Y-143171560D01*
X137548910Y-143171560D01*
X137590391Y-143175645D01*
G37*
G36*
X137590391Y-141600645D02*
G01*
X137624369Y-141610953D01*
X137655690Y-141627694D01*
X137683139Y-141650221D01*
X137705666Y-141677670D01*
X137722407Y-141708991D01*
X137732715Y-141742969D01*
X137736800Y-141784450D01*
X137736800Y-142385670D01*
X137732715Y-142427151D01*
X137722407Y-142461129D01*
X137705666Y-142492450D01*
X137683139Y-142519899D01*
X137655690Y-142542426D01*
X137624369Y-142559167D01*
X137590391Y-142569475D01*
X137548910Y-142573560D01*
X136872690Y-142573560D01*
X136831209Y-142569475D01*
X136797231Y-142559167D01*
X136765910Y-142542426D01*
X136738461Y-142519899D01*
X136715934Y-142492450D01*
X136699193Y-142461129D01*
X136688885Y-142427151D01*
X136684800Y-142385670D01*
X136684800Y-141784450D01*
X136688885Y-141742969D01*
X136699193Y-141708991D01*
X136715934Y-141677670D01*
X136738461Y-141650221D01*
X136765910Y-141627694D01*
X136797231Y-141610953D01*
X136831209Y-141600645D01*
X136872690Y-141596560D01*
X137548910Y-141596560D01*
X137590391Y-141600645D01*
G37*
G36*
X132096771Y-141484405D02*
G01*
X132130749Y-141494713D01*
X132162070Y-141511454D01*
X132189519Y-141533981D01*
X132212046Y-141561430D01*
X132228787Y-141592751D01*
X132239095Y-141626729D01*
X132243180Y-141668210D01*
X132243180Y-142344430D01*
X132239095Y-142385911D01*
X132228787Y-142419889D01*
X132212046Y-142451210D01*
X132189519Y-142478659D01*
X132162070Y-142501186D01*
X132130749Y-142517927D01*
X132096771Y-142528235D01*
X132055290Y-142532320D01*
X131454070Y-142532320D01*
X131412589Y-142528235D01*
X131378611Y-142517927D01*
X131347290Y-142501186D01*
X131319841Y-142478659D01*
X131297314Y-142451210D01*
X131280573Y-142419889D01*
X131270265Y-142385911D01*
X131266180Y-142344430D01*
X131266180Y-141668210D01*
X131270265Y-141626729D01*
X131280573Y-141592751D01*
X131297314Y-141561430D01*
X131319841Y-141533981D01*
X131347290Y-141511454D01*
X131378611Y-141494713D01*
X131412589Y-141484405D01*
X131454070Y-141480320D01*
X132055290Y-141480320D01*
X132096771Y-141484405D01*
G37*
G36*
X133671771Y-141484405D02*
G01*
X133705749Y-141494713D01*
X133737070Y-141511454D01*
X133764519Y-141533981D01*
X133787046Y-141561430D01*
X133803787Y-141592751D01*
X133814095Y-141626729D01*
X133818180Y-141668210D01*
X133818180Y-142344430D01*
X133814095Y-142385911D01*
X133803787Y-142419889D01*
X133787046Y-142451210D01*
X133764519Y-142478659D01*
X133737070Y-142501186D01*
X133705749Y-142517927D01*
X133671771Y-142528235D01*
X133630290Y-142532320D01*
X133029070Y-142532320D01*
X132987589Y-142528235D01*
X132953611Y-142517927D01*
X132922290Y-142501186D01*
X132894841Y-142478659D01*
X132872314Y-142451210D01*
X132855573Y-142419889D01*
X132845265Y-142385911D01*
X132841180Y-142344430D01*
X132841180Y-141668210D01*
X132845265Y-141626729D01*
X132855573Y-141592751D01*
X132872314Y-141561430D01*
X132894841Y-141533981D01*
X132922290Y-141511454D01*
X132953611Y-141494713D01*
X132987589Y-141484405D01*
X133029070Y-141480320D01*
X133630290Y-141480320D01*
X133671771Y-141484405D01*
G37*
G36*
X137603891Y-139711485D02*
G01*
X137637869Y-139721793D01*
X137669190Y-139738534D01*
X137696639Y-139761061D01*
X137719166Y-139788510D01*
X137735907Y-139819831D01*
X137746215Y-139853809D01*
X137750300Y-139895290D01*
X137750300Y-140571510D01*
X137746215Y-140612991D01*
X137735907Y-140646969D01*
X137719166Y-140678290D01*
X137696639Y-140705739D01*
X137669190Y-140728266D01*
X137637869Y-140745007D01*
X137603891Y-140755315D01*
X137562410Y-140759400D01*
X136961190Y-140759400D01*
X136919709Y-140755315D01*
X136885731Y-140745007D01*
X136854410Y-140728266D01*
X136826961Y-140705739D01*
X136804434Y-140678290D01*
X136787693Y-140646969D01*
X136777385Y-140612991D01*
X136773300Y-140571510D01*
X136773300Y-139895290D01*
X136777385Y-139853809D01*
X136787693Y-139819831D01*
X136804434Y-139788510D01*
X136826961Y-139761061D01*
X136854410Y-139738534D01*
X136885731Y-139721793D01*
X136919709Y-139711485D01*
X136961190Y-139707400D01*
X137562410Y-139707400D01*
X137603891Y-139711485D01*
G37*
G36*
X136028891Y-139711485D02*
G01*
X136062869Y-139721793D01*
X136094190Y-139738534D01*
X136121639Y-139761061D01*
X136144166Y-139788510D01*
X136160907Y-139819831D01*
X136171215Y-139853809D01*
X136175300Y-139895290D01*
X136175300Y-140571510D01*
X136171215Y-140612991D01*
X136160907Y-140646969D01*
X136144166Y-140678290D01*
X136121639Y-140705739D01*
X136094190Y-140728266D01*
X136062869Y-140745007D01*
X136028891Y-140755315D01*
X135987410Y-140759400D01*
X135386190Y-140759400D01*
X135344709Y-140755315D01*
X135310731Y-140745007D01*
X135279410Y-140728266D01*
X135251961Y-140705739D01*
X135229434Y-140678290D01*
X135212693Y-140646969D01*
X135202385Y-140612991D01*
X135198300Y-140571510D01*
X135198300Y-139895290D01*
X135202385Y-139853809D01*
X135212693Y-139819831D01*
X135229434Y-139788510D01*
X135251961Y-139761061D01*
X135279410Y-139738534D01*
X135310731Y-139721793D01*
X135344709Y-139711485D01*
X135386190Y-139707400D01*
X135987410Y-139707400D01*
X136028891Y-139711485D01*
G37*
G36*
X136028891Y-137908085D02*
G01*
X136062869Y-137918393D01*
X136094190Y-137935134D01*
X136121639Y-137957661D01*
X136144166Y-137985110D01*
X136160907Y-138016431D01*
X136171215Y-138050409D01*
X136175300Y-138091890D01*
X136175300Y-138768110D01*
X136171215Y-138809591D01*
X136160907Y-138843569D01*
X136144166Y-138874890D01*
X136121639Y-138902339D01*
X136094190Y-138924866D01*
X136062869Y-138941607D01*
X136028891Y-138951915D01*
X135987410Y-138956000D01*
X135386190Y-138956000D01*
X135344709Y-138951915D01*
X135310731Y-138941607D01*
X135279410Y-138924866D01*
X135251961Y-138902339D01*
X135229434Y-138874890D01*
X135212693Y-138843569D01*
X135202385Y-138809591D01*
X135198300Y-138768110D01*
X135198300Y-138091890D01*
X135202385Y-138050409D01*
X135212693Y-138016431D01*
X135229434Y-137985110D01*
X135251961Y-137957661D01*
X135279410Y-137935134D01*
X135310731Y-137918393D01*
X135344709Y-137908085D01*
X135386190Y-137904000D01*
X135987410Y-137904000D01*
X136028891Y-137908085D01*
G37*
G36*
X137603891Y-137908085D02*
G01*
X137637869Y-137918393D01*
X137669190Y-137935134D01*
X137696639Y-137957661D01*
X137719166Y-137985110D01*
X137735907Y-138016431D01*
X137746215Y-138050409D01*
X137750300Y-138091890D01*
X137750300Y-138768110D01*
X137746215Y-138809591D01*
X137735907Y-138843569D01*
X137719166Y-138874890D01*
X137696639Y-138902339D01*
X137669190Y-138924866D01*
X137637869Y-138941607D01*
X137603891Y-138951915D01*
X137562410Y-138956000D01*
X136961190Y-138956000D01*
X136919709Y-138951915D01*
X136885731Y-138941607D01*
X136854410Y-138924866D01*
X136826961Y-138902339D01*
X136804434Y-138874890D01*
X136787693Y-138843569D01*
X136777385Y-138809591D01*
X136773300Y-138768110D01*
X136773300Y-138091890D01*
X136777385Y-138050409D01*
X136787693Y-138016431D01*
X136804434Y-137985110D01*
X136826961Y-137957661D01*
X136854410Y-137935134D01*
X136885731Y-137918393D01*
X136919709Y-137908085D01*
X136961190Y-137904000D01*
X137562410Y-137904000D01*
X137603891Y-137908085D01*
G37*
G36*
X127722200Y-136223240D02*
G01*
X126320200Y-136223240D01*
X126320200Y-134571240D01*
X127722200Y-134571240D01*
X127722200Y-136223240D01*
G37*
G36*
X132222200Y-136223240D02*
G01*
X130820200Y-136223240D01*
X130820200Y-134571240D01*
X132222200Y-134571240D01*
X132222200Y-136223240D01*
G37*
G36*
X137122601Y-135075694D02*
G01*
X137222875Y-135117229D01*
X137222876Y-135117230D01*
X137313122Y-135177530D01*
X137389870Y-135254278D01*
X137389871Y-135254280D01*
X137450171Y-135344525D01*
X137491706Y-135444799D01*
X137512880Y-135551250D01*
X137512880Y-135659790D01*
X137491706Y-135766241D01*
X137450171Y-135866515D01*
X137450170Y-135866516D01*
X137389870Y-135956762D01*
X137313122Y-136033510D01*
X137267692Y-136063865D01*
X137222875Y-136093811D01*
X137122601Y-136135346D01*
X137016150Y-136156520D01*
X136907610Y-136156520D01*
X136801159Y-136135346D01*
X136700885Y-136093811D01*
X136656068Y-136063865D01*
X136610638Y-136033510D01*
X136533890Y-135956762D01*
X136473590Y-135866516D01*
X136473589Y-135866515D01*
X136432054Y-135766241D01*
X136410880Y-135659790D01*
X136410880Y-135551250D01*
X136432054Y-135444799D01*
X136473589Y-135344525D01*
X136533889Y-135254280D01*
X136533890Y-135254278D01*
X136610638Y-135177530D01*
X136700884Y-135117230D01*
X136700885Y-135117229D01*
X136801159Y-135075694D01*
X136907610Y-135054520D01*
X137016150Y-135054520D01*
X137122601Y-135075694D01*
G37*
G36*
X132222200Y-128273240D02*
G01*
X130820200Y-128273240D01*
X130820200Y-126621240D01*
X132222200Y-126621240D01*
X132222200Y-128273240D01*
G37*
G36*
X127722200Y-128273240D02*
G01*
X126320200Y-128273240D01*
X126320200Y-126621240D01*
X127722200Y-126621240D01*
X127722200Y-128273240D01*
G37*
G36*
X141664121Y-126698774D02*
G01*
X141764395Y-126740309D01*
X141781742Y-126751900D01*
X141854642Y-126800610D01*
X141931390Y-126877358D01*
X141931391Y-126877360D01*
X141991691Y-126967605D01*
X142033226Y-127067879D01*
X142054400Y-127174330D01*
X142054400Y-127282870D01*
X142033226Y-127389321D01*
X141991691Y-127489595D01*
X141991690Y-127489596D01*
X141931390Y-127579842D01*
X141854642Y-127656590D01*
X141809212Y-127686945D01*
X141764395Y-127716891D01*
X141664121Y-127758426D01*
X141557670Y-127779600D01*
X141449130Y-127779600D01*
X141342679Y-127758426D01*
X141242405Y-127716891D01*
X141197588Y-127686945D01*
X141152158Y-127656590D01*
X141075410Y-127579842D01*
X141015110Y-127489596D01*
X141015109Y-127489595D01*
X140973574Y-127389321D01*
X140952400Y-127282870D01*
X140952400Y-127174330D01*
X140973574Y-127067879D01*
X141015109Y-126967605D01*
X141075409Y-126877360D01*
X141075410Y-126877358D01*
X141152158Y-126800610D01*
X141225058Y-126751900D01*
X141242405Y-126740309D01*
X141342679Y-126698774D01*
X141449130Y-126677600D01*
X141557670Y-126677600D01*
X141664121Y-126698774D01*
G37*
G36*
X139596991Y-125779185D02*
G01*
X139630969Y-125789493D01*
X139662290Y-125806234D01*
X139689739Y-125828761D01*
X139712266Y-125856210D01*
X139729007Y-125887531D01*
X139739315Y-125921509D01*
X139743400Y-125962990D01*
X139743400Y-126564210D01*
X139739315Y-126605691D01*
X139729007Y-126639669D01*
X139712266Y-126670990D01*
X139689739Y-126698439D01*
X139662290Y-126720966D01*
X139630969Y-126737707D01*
X139596991Y-126748015D01*
X139555510Y-126752100D01*
X138879290Y-126752100D01*
X138837809Y-126748015D01*
X138803831Y-126737707D01*
X138772510Y-126720966D01*
X138745061Y-126698439D01*
X138722534Y-126670990D01*
X138705793Y-126639669D01*
X138695485Y-126605691D01*
X138691400Y-126564210D01*
X138691400Y-125962990D01*
X138695485Y-125921509D01*
X138705793Y-125887531D01*
X138722534Y-125856210D01*
X138745061Y-125828761D01*
X138772510Y-125806234D01*
X138803831Y-125789493D01*
X138837809Y-125779185D01*
X138879290Y-125775100D01*
X139555510Y-125775100D01*
X139596991Y-125779185D01*
G37*
G36*
X137768191Y-125779185D02*
G01*
X137802169Y-125789493D01*
X137833490Y-125806234D01*
X137860939Y-125828761D01*
X137883466Y-125856210D01*
X137900207Y-125887531D01*
X137910515Y-125921509D01*
X137914600Y-125962990D01*
X137914600Y-126564210D01*
X137910515Y-126605691D01*
X137900207Y-126639669D01*
X137883466Y-126670990D01*
X137860939Y-126698439D01*
X137833490Y-126720966D01*
X137802169Y-126737707D01*
X137768191Y-126748015D01*
X137726710Y-126752100D01*
X137050490Y-126752100D01*
X137009009Y-126748015D01*
X136975031Y-126737707D01*
X136943710Y-126720966D01*
X136916261Y-126698439D01*
X136893734Y-126670990D01*
X136876993Y-126639669D01*
X136866685Y-126605691D01*
X136862600Y-126564210D01*
X136862600Y-125962990D01*
X136866685Y-125921509D01*
X136876993Y-125887531D01*
X136893734Y-125856210D01*
X136916261Y-125828761D01*
X136943710Y-125806234D01*
X136975031Y-125789493D01*
X137009009Y-125779185D01*
X137050490Y-125775100D01*
X137726710Y-125775100D01*
X137768191Y-125779185D01*
G37*
G36*
X135952091Y-125778985D02*
G01*
X135986069Y-125789293D01*
X136017390Y-125806034D01*
X136044839Y-125828561D01*
X136067366Y-125856010D01*
X136084107Y-125887331D01*
X136094415Y-125921309D01*
X136098500Y-125962790D01*
X136098500Y-126564010D01*
X136094415Y-126605491D01*
X136084107Y-126639469D01*
X136067366Y-126670790D01*
X136044839Y-126698239D01*
X136017390Y-126720766D01*
X135986069Y-126737507D01*
X135952091Y-126747815D01*
X135910610Y-126751900D01*
X135234390Y-126751900D01*
X135192909Y-126747815D01*
X135158931Y-126737507D01*
X135127610Y-126720766D01*
X135100161Y-126698239D01*
X135077634Y-126670790D01*
X135060893Y-126639469D01*
X135050585Y-126605491D01*
X135046500Y-126564010D01*
X135046500Y-125962790D01*
X135050585Y-125921309D01*
X135060893Y-125887331D01*
X135077634Y-125856010D01*
X135100161Y-125828561D01*
X135127610Y-125806034D01*
X135158931Y-125789293D01*
X135192909Y-125778985D01*
X135234390Y-125774900D01*
X135910610Y-125774900D01*
X135952091Y-125778985D01*
G37*
G36*
X139596991Y-124204185D02*
G01*
X139630969Y-124214493D01*
X139662290Y-124231234D01*
X139689739Y-124253761D01*
X139712266Y-124281210D01*
X139729007Y-124312531D01*
X139739315Y-124346509D01*
X139743400Y-124387990D01*
X139743400Y-124989210D01*
X139739315Y-125030691D01*
X139729007Y-125064669D01*
X139712266Y-125095990D01*
X139689739Y-125123439D01*
X139662290Y-125145966D01*
X139630969Y-125162707D01*
X139596991Y-125173015D01*
X139555510Y-125177100D01*
X138879290Y-125177100D01*
X138837809Y-125173015D01*
X138803831Y-125162707D01*
X138772510Y-125145966D01*
X138745061Y-125123439D01*
X138722534Y-125095990D01*
X138705793Y-125064669D01*
X138695485Y-125030691D01*
X138691400Y-124989210D01*
X138691400Y-124387990D01*
X138695485Y-124346509D01*
X138705793Y-124312531D01*
X138722534Y-124281210D01*
X138745061Y-124253761D01*
X138772510Y-124231234D01*
X138803831Y-124214493D01*
X138837809Y-124204185D01*
X138879290Y-124200100D01*
X139555510Y-124200100D01*
X139596991Y-124204185D01*
G37*
G36*
X137768191Y-124204185D02*
G01*
X137802169Y-124214493D01*
X137833490Y-124231234D01*
X137860939Y-124253761D01*
X137883466Y-124281210D01*
X137900207Y-124312531D01*
X137910515Y-124346509D01*
X137914600Y-124387990D01*
X137914600Y-124989210D01*
X137910515Y-125030691D01*
X137900207Y-125064669D01*
X137883466Y-125095990D01*
X137860939Y-125123439D01*
X137833490Y-125145966D01*
X137802169Y-125162707D01*
X137768191Y-125173015D01*
X137726710Y-125177100D01*
X137050490Y-125177100D01*
X137009009Y-125173015D01*
X136975031Y-125162707D01*
X136943710Y-125145966D01*
X136916261Y-125123439D01*
X136893734Y-125095990D01*
X136876993Y-125064669D01*
X136866685Y-125030691D01*
X136862600Y-124989210D01*
X136862600Y-124387990D01*
X136866685Y-124346509D01*
X136876993Y-124312531D01*
X136893734Y-124281210D01*
X136916261Y-124253761D01*
X136943710Y-124231234D01*
X136975031Y-124214493D01*
X137009009Y-124204185D01*
X137050490Y-124200100D01*
X137726710Y-124200100D01*
X137768191Y-124204185D01*
G37*
G36*
X135952091Y-124203985D02*
G01*
X135986069Y-124214293D01*
X136017390Y-124231034D01*
X136044839Y-124253561D01*
X136067366Y-124281010D01*
X136084107Y-124312331D01*
X136094415Y-124346309D01*
X136098500Y-124387790D01*
X136098500Y-124989010D01*
X136094415Y-125030491D01*
X136084107Y-125064469D01*
X136067366Y-125095790D01*
X136044839Y-125123239D01*
X136017390Y-125145766D01*
X135986069Y-125162507D01*
X135952091Y-125172815D01*
X135910610Y-125176900D01*
X135234390Y-125176900D01*
X135192909Y-125172815D01*
X135158931Y-125162507D01*
X135127610Y-125145766D01*
X135100161Y-125123239D01*
X135077634Y-125095790D01*
X135060893Y-125064469D01*
X135050585Y-125030491D01*
X135046500Y-124989010D01*
X135046500Y-124387790D01*
X135050585Y-124346309D01*
X135060893Y-124312331D01*
X135077634Y-124281010D01*
X135100161Y-124253561D01*
X135127610Y-124231034D01*
X135158931Y-124214293D01*
X135192909Y-124203985D01*
X135234390Y-124199900D01*
X135910610Y-124199900D01*
X135952091Y-124203985D01*
G37*
G36*
X141298791Y-124178885D02*
G01*
X141332769Y-124189193D01*
X141364090Y-124205934D01*
X141391539Y-124228461D01*
X141414066Y-124255910D01*
X141430807Y-124287231D01*
X141441115Y-124321209D01*
X141445200Y-124362690D01*
X141445200Y-124963910D01*
X141441115Y-125005391D01*
X141430807Y-125039369D01*
X141414066Y-125070690D01*
X141391539Y-125098139D01*
X141364090Y-125120666D01*
X141332769Y-125137407D01*
X141298791Y-125147715D01*
X141257310Y-125151800D01*
X140581090Y-125151800D01*
X140539609Y-125147715D01*
X140505631Y-125137407D01*
X140474310Y-125120666D01*
X140446861Y-125098139D01*
X140424334Y-125070690D01*
X140407593Y-125039369D01*
X140397285Y-125005391D01*
X140393200Y-124963910D01*
X140393200Y-124362690D01*
X140397285Y-124321209D01*
X140407593Y-124287231D01*
X140424334Y-124255910D01*
X140446861Y-124228461D01*
X140474310Y-124205934D01*
X140505631Y-124189193D01*
X140539609Y-124178885D01*
X140581090Y-124174800D01*
X141257310Y-124174800D01*
X141298791Y-124178885D01*
G37*
G36*
X141298791Y-122603885D02*
G01*
X141332769Y-122614193D01*
X141364090Y-122630934D01*
X141391539Y-122653461D01*
X141414066Y-122680910D01*
X141430807Y-122712231D01*
X141441115Y-122746209D01*
X141445200Y-122787690D01*
X141445200Y-123388910D01*
X141441115Y-123430391D01*
X141430807Y-123464369D01*
X141414066Y-123495690D01*
X141391539Y-123523139D01*
X141364090Y-123545666D01*
X141332769Y-123562407D01*
X141298791Y-123572715D01*
X141257310Y-123576800D01*
X140581090Y-123576800D01*
X140539609Y-123572715D01*
X140505631Y-123562407D01*
X140474310Y-123545666D01*
X140446861Y-123523139D01*
X140424334Y-123495690D01*
X140407593Y-123464369D01*
X140397285Y-123430391D01*
X140393200Y-123388910D01*
X140393200Y-122787690D01*
X140397285Y-122746209D01*
X140407593Y-122712231D01*
X140424334Y-122680910D01*
X140446861Y-122653461D01*
X140474310Y-122630934D01*
X140505631Y-122614193D01*
X140539609Y-122603885D01*
X140581090Y-122599800D01*
X141257310Y-122599800D01*
X141298791Y-122603885D01*
G37*
G36*
X145150721Y-117130174D02*
G01*
X145250995Y-117171709D01*
X145250996Y-117171710D01*
X145341242Y-117232010D01*
X145417990Y-117308758D01*
X145417991Y-117308760D01*
X145478291Y-117399005D01*
X145519826Y-117499279D01*
X145541000Y-117605730D01*
X145541000Y-117714270D01*
X145519826Y-117820721D01*
X145478291Y-117920995D01*
X145478290Y-117920996D01*
X145417990Y-118011242D01*
X145341242Y-118087990D01*
X145295812Y-118118345D01*
X145250995Y-118148291D01*
X145150721Y-118189826D01*
X145044270Y-118211000D01*
X144935730Y-118211000D01*
X144829279Y-118189826D01*
X144729005Y-118148291D01*
X144684188Y-118118345D01*
X144638758Y-118087990D01*
X144562010Y-118011242D01*
X144501710Y-117920996D01*
X144501709Y-117920995D01*
X144460174Y-117820721D01*
X144439000Y-117714270D01*
X144439000Y-117605730D01*
X144460174Y-117499279D01*
X144501709Y-117399005D01*
X144562009Y-117308760D01*
X144562010Y-117308758D01*
X144638758Y-117232010D01*
X144729004Y-117171710D01*
X144729005Y-117171709D01*
X144829279Y-117130174D01*
X144935730Y-117109000D01*
X145044270Y-117109000D01*
X145150721Y-117130174D01*
G37*
G36*
X145150721Y-110330174D02*
G01*
X145250995Y-110371709D01*
X145250996Y-110371710D01*
X145341242Y-110432010D01*
X145417990Y-110508758D01*
X145417991Y-110508760D01*
X145478291Y-110599005D01*
X145519826Y-110699279D01*
X145541000Y-110805730D01*
X145541000Y-110914270D01*
X145519826Y-111020721D01*
X145478291Y-111120995D01*
X145478290Y-111120996D01*
X145417990Y-111211242D01*
X145341242Y-111287990D01*
X145295812Y-111318345D01*
X145250995Y-111348291D01*
X145150721Y-111389826D01*
X145044270Y-111411000D01*
X144935730Y-111411000D01*
X144829279Y-111389826D01*
X144729005Y-111348291D01*
X144684188Y-111318345D01*
X144638758Y-111287990D01*
X144562010Y-111211242D01*
X144501710Y-111120996D01*
X144501709Y-111120995D01*
X144460174Y-111020721D01*
X144439000Y-110914270D01*
X144439000Y-110805730D01*
X144460174Y-110699279D01*
X144501709Y-110599005D01*
X144562009Y-110508760D01*
X144562010Y-110508758D01*
X144638758Y-110432010D01*
X144729004Y-110371710D01*
X144729005Y-110371709D01*
X144829279Y-110330174D01*
X144935730Y-110309000D01*
X145044270Y-110309000D01*
X145150721Y-110330174D01*
G37*
G36*
X94228228Y-107131703D02*
G01*
X94383100Y-107195853D01*
X94522481Y-107288985D01*
X94641015Y-107407519D01*
X94734147Y-107546900D01*
X94798297Y-107701772D01*
X94831000Y-107866184D01*
X94831000Y-108033816D01*
X94798297Y-108198228D01*
X94734147Y-108353100D01*
X94641015Y-108492481D01*
X94522481Y-108611015D01*
X94383100Y-108704147D01*
X94228228Y-108768297D01*
X94063816Y-108801000D01*
X93896184Y-108801000D01*
X93731772Y-108768297D01*
X93576900Y-108704147D01*
X93437519Y-108611015D01*
X93318985Y-108492481D01*
X93225853Y-108353100D01*
X93161703Y-108198228D01*
X93129000Y-108033816D01*
X93129000Y-107866184D01*
X93161703Y-107701772D01*
X93225853Y-107546900D01*
X93318985Y-107407519D01*
X93437519Y-107288985D01*
X93576900Y-107195853D01*
X93731772Y-107131703D01*
X93896184Y-107099000D01*
X94063816Y-107099000D01*
X94228228Y-107131703D01*
G37*
G36*
X89148228Y-107131703D02*
G01*
X89303100Y-107195853D01*
X89442481Y-107288985D01*
X89561015Y-107407519D01*
X89654147Y-107546900D01*
X89718297Y-107701772D01*
X89751000Y-107866184D01*
X89751000Y-108033816D01*
X89718297Y-108198228D01*
X89654147Y-108353100D01*
X89561015Y-108492481D01*
X89442481Y-108611015D01*
X89303100Y-108704147D01*
X89148228Y-108768297D01*
X88983816Y-108801000D01*
X88816184Y-108801000D01*
X88651772Y-108768297D01*
X88496900Y-108704147D01*
X88357519Y-108611015D01*
X88238985Y-108492481D01*
X88145853Y-108353100D01*
X88081703Y-108198228D01*
X88049000Y-108033816D01*
X88049000Y-107866184D01*
X88081703Y-107701772D01*
X88145853Y-107546900D01*
X88238985Y-107407519D01*
X88357519Y-107288985D01*
X88496900Y-107195853D01*
X88651772Y-107131703D01*
X88816184Y-107099000D01*
X88983816Y-107099000D01*
X89148228Y-107131703D01*
G37*
G36*
X108198228Y-107131703D02*
G01*
X108353100Y-107195853D01*
X108492481Y-107288985D01*
X108611015Y-107407519D01*
X108704147Y-107546900D01*
X108768297Y-107701772D01*
X108801000Y-107866184D01*
X108801000Y-108033816D01*
X108768297Y-108198228D01*
X108704147Y-108353100D01*
X108611015Y-108492481D01*
X108492481Y-108611015D01*
X108353100Y-108704147D01*
X108198228Y-108768297D01*
X108033816Y-108801000D01*
X107866184Y-108801000D01*
X107701772Y-108768297D01*
X107546900Y-108704147D01*
X107407519Y-108611015D01*
X107288985Y-108492481D01*
X107195853Y-108353100D01*
X107131703Y-108198228D01*
X107099000Y-108033816D01*
X107099000Y-107866184D01*
X107131703Y-107701772D01*
X107195853Y-107546900D01*
X107288985Y-107407519D01*
X107407519Y-107288985D01*
X107546900Y-107195853D01*
X107701772Y-107131703D01*
X107866184Y-107099000D01*
X108033816Y-107099000D01*
X108198228Y-107131703D01*
G37*
G36*
X113278228Y-107131703D02*
G01*
X113433100Y-107195853D01*
X113572481Y-107288985D01*
X113691015Y-107407519D01*
X113784147Y-107546900D01*
X113848297Y-107701772D01*
X113881000Y-107866184D01*
X113881000Y-108033816D01*
X113848297Y-108198228D01*
X113784147Y-108353100D01*
X113691015Y-108492481D01*
X113572481Y-108611015D01*
X113433100Y-108704147D01*
X113278228Y-108768297D01*
X113113816Y-108801000D01*
X112946184Y-108801000D01*
X112781772Y-108768297D01*
X112626900Y-108704147D01*
X112487519Y-108611015D01*
X112368985Y-108492481D01*
X112275853Y-108353100D01*
X112211703Y-108198228D01*
X112179000Y-108033816D01*
X112179000Y-107866184D01*
X112211703Y-107701772D01*
X112275853Y-107546900D01*
X112368985Y-107407519D01*
X112487519Y-107288985D01*
X112626900Y-107195853D01*
X112781772Y-107131703D01*
X112946184Y-107099000D01*
X113113816Y-107099000D01*
X113278228Y-107131703D01*
G37*
G36*
X113278228Y-104591703D02*
G01*
X113433100Y-104655853D01*
X113572481Y-104748985D01*
X113691015Y-104867519D01*
X113784147Y-105006900D01*
X113848297Y-105161772D01*
X113881000Y-105326184D01*
X113881000Y-105493816D01*
X113848297Y-105658228D01*
X113784147Y-105813100D01*
X113691015Y-105952481D01*
X113572481Y-106071015D01*
X113433100Y-106164147D01*
X113278228Y-106228297D01*
X113113816Y-106261000D01*
X112946184Y-106261000D01*
X112781772Y-106228297D01*
X112626900Y-106164147D01*
X112487519Y-106071015D01*
X112368985Y-105952481D01*
X112275853Y-105813100D01*
X112211703Y-105658228D01*
X112179000Y-105493816D01*
X112179000Y-105326184D01*
X112211703Y-105161772D01*
X112275853Y-105006900D01*
X112368985Y-104867519D01*
X112487519Y-104748985D01*
X112626900Y-104655853D01*
X112781772Y-104591703D01*
X112946184Y-104559000D01*
X113113816Y-104559000D01*
X113278228Y-104591703D01*
G37*
G36*
X108198228Y-104591703D02*
G01*
X108353100Y-104655853D01*
X108492481Y-104748985D01*
X108611015Y-104867519D01*
X108704147Y-105006900D01*
X108768297Y-105161772D01*
X108801000Y-105326184D01*
X108801000Y-105493816D01*
X108768297Y-105658228D01*
X108704147Y-105813100D01*
X108611015Y-105952481D01*
X108492481Y-106071015D01*
X108353100Y-106164147D01*
X108198228Y-106228297D01*
X108033816Y-106261000D01*
X107866184Y-106261000D01*
X107701772Y-106228297D01*
X107546900Y-106164147D01*
X107407519Y-106071015D01*
X107288985Y-105952481D01*
X107195853Y-105813100D01*
X107131703Y-105658228D01*
X107099000Y-105493816D01*
X107099000Y-105326184D01*
X107131703Y-105161772D01*
X107195853Y-105006900D01*
X107288985Y-104867519D01*
X107407519Y-104748985D01*
X107546900Y-104655853D01*
X107701772Y-104591703D01*
X107866184Y-104559000D01*
X108033816Y-104559000D01*
X108198228Y-104591703D01*
G37*
G36*
X94228228Y-104591703D02*
G01*
X94383100Y-104655853D01*
X94522481Y-104748985D01*
X94641015Y-104867519D01*
X94734147Y-105006900D01*
X94798297Y-105161772D01*
X94831000Y-105326184D01*
X94831000Y-105493816D01*
X94798297Y-105658228D01*
X94734147Y-105813100D01*
X94641015Y-105952481D01*
X94522481Y-106071015D01*
X94383100Y-106164147D01*
X94228228Y-106228297D01*
X94063816Y-106261000D01*
X93896184Y-106261000D01*
X93731772Y-106228297D01*
X93576900Y-106164147D01*
X93437519Y-106071015D01*
X93318985Y-105952481D01*
X93225853Y-105813100D01*
X93161703Y-105658228D01*
X93129000Y-105493816D01*
X93129000Y-105326184D01*
X93161703Y-105161772D01*
X93225853Y-105006900D01*
X93318985Y-104867519D01*
X93437519Y-104748985D01*
X93576900Y-104655853D01*
X93731772Y-104591703D01*
X93896184Y-104559000D01*
X94063816Y-104559000D01*
X94228228Y-104591703D01*
G37*
G36*
X89148228Y-104591703D02*
G01*
X89303100Y-104655853D01*
X89442481Y-104748985D01*
X89561015Y-104867519D01*
X89654147Y-105006900D01*
X89718297Y-105161772D01*
X89751000Y-105326184D01*
X89751000Y-105493816D01*
X89718297Y-105658228D01*
X89654147Y-105813100D01*
X89561015Y-105952481D01*
X89442481Y-106071015D01*
X89303100Y-106164147D01*
X89148228Y-106228297D01*
X88983816Y-106261000D01*
X88816184Y-106261000D01*
X88651772Y-106228297D01*
X88496900Y-106164147D01*
X88357519Y-106071015D01*
X88238985Y-105952481D01*
X88145853Y-105813100D01*
X88081703Y-105658228D01*
X88049000Y-105493816D01*
X88049000Y-105326184D01*
X88081703Y-105161772D01*
X88145853Y-105006900D01*
X88238985Y-104867519D01*
X88357519Y-104748985D01*
X88496900Y-104655853D01*
X88651772Y-104591703D01*
X88816184Y-104559000D01*
X88983816Y-104559000D01*
X89148228Y-104591703D01*
G37*
G36*
X145772713Y-104279249D02*
G01*
X145867152Y-104307897D01*
X145954187Y-104354418D01*
X146030475Y-104417025D01*
X146093082Y-104493313D01*
X146139603Y-104580348D01*
X146168251Y-104674787D01*
X146177924Y-104773000D01*
X146168251Y-104871213D01*
X146139603Y-104965652D01*
X146093082Y-105052687D01*
X146030475Y-105128975D01*
X145954187Y-105191582D01*
X145867152Y-105238103D01*
X145772713Y-105266751D01*
X145699112Y-105274000D01*
X144749888Y-105274000D01*
X144676287Y-105266751D01*
X144581848Y-105238103D01*
X144494813Y-105191582D01*
X144418525Y-105128975D01*
X144355918Y-105052687D01*
X144309397Y-104965652D01*
X144280749Y-104871213D01*
X144271076Y-104773000D01*
X144280749Y-104674787D01*
X144309397Y-104580348D01*
X144355918Y-104493313D01*
X144418525Y-104417025D01*
X144494813Y-104354418D01*
X144581848Y-104307897D01*
X144676287Y-104279249D01*
X144749888Y-104272000D01*
X145699112Y-104272000D01*
X145772713Y-104279249D01*
G37*
G36*
X113278228Y-102051703D02*
G01*
X113433100Y-102115853D01*
X113572481Y-102208985D01*
X113691015Y-102327519D01*
X113784147Y-102466900D01*
X113848297Y-102621772D01*
X113881000Y-102786184D01*
X113881000Y-102953816D01*
X113848297Y-103118228D01*
X113784147Y-103273100D01*
X113691015Y-103412481D01*
X113572481Y-103531015D01*
X113433100Y-103624147D01*
X113278228Y-103688297D01*
X113113816Y-103721000D01*
X112946184Y-103721000D01*
X112781772Y-103688297D01*
X112626900Y-103624147D01*
X112487519Y-103531015D01*
X112368985Y-103412481D01*
X112275853Y-103273100D01*
X112211703Y-103118228D01*
X112179000Y-102953816D01*
X112179000Y-102786184D01*
X112211703Y-102621772D01*
X112275853Y-102466900D01*
X112368985Y-102327519D01*
X112487519Y-102208985D01*
X112626900Y-102115853D01*
X112781772Y-102051703D01*
X112946184Y-102019000D01*
X113113816Y-102019000D01*
X113278228Y-102051703D01*
G37*
G36*
X108198228Y-102051703D02*
G01*
X108353100Y-102115853D01*
X108492481Y-102208985D01*
X108611015Y-102327519D01*
X108704147Y-102466900D01*
X108768297Y-102621772D01*
X108801000Y-102786184D01*
X108801000Y-102953816D01*
X108768297Y-103118228D01*
X108704147Y-103273100D01*
X108611015Y-103412481D01*
X108492481Y-103531015D01*
X108353100Y-103624147D01*
X108198228Y-103688297D01*
X108033816Y-103721000D01*
X107866184Y-103721000D01*
X107701772Y-103688297D01*
X107546900Y-103624147D01*
X107407519Y-103531015D01*
X107288985Y-103412481D01*
X107195853Y-103273100D01*
X107131703Y-103118228D01*
X107099000Y-102953816D01*
X107099000Y-102786184D01*
X107131703Y-102621772D01*
X107195853Y-102466900D01*
X107288985Y-102327519D01*
X107407519Y-102208985D01*
X107546900Y-102115853D01*
X107701772Y-102051703D01*
X107866184Y-102019000D01*
X108033816Y-102019000D01*
X108198228Y-102051703D01*
G37*
G36*
X89148228Y-102051703D02*
G01*
X89303100Y-102115853D01*
X89442481Y-102208985D01*
X89561015Y-102327519D01*
X89654147Y-102466900D01*
X89718297Y-102621772D01*
X89751000Y-102786184D01*
X89751000Y-102953816D01*
X89718297Y-103118228D01*
X89654147Y-103273100D01*
X89561015Y-103412481D01*
X89442481Y-103531015D01*
X89303100Y-103624147D01*
X89148228Y-103688297D01*
X88983816Y-103721000D01*
X88816184Y-103721000D01*
X88651772Y-103688297D01*
X88496900Y-103624147D01*
X88357519Y-103531015D01*
X88238985Y-103412481D01*
X88145853Y-103273100D01*
X88081703Y-103118228D01*
X88049000Y-102953816D01*
X88049000Y-102786184D01*
X88081703Y-102621772D01*
X88145853Y-102466900D01*
X88238985Y-102327519D01*
X88357519Y-102208985D01*
X88496900Y-102115853D01*
X88651772Y-102051703D01*
X88816184Y-102019000D01*
X88983816Y-102019000D01*
X89148228Y-102051703D01*
G37*
G36*
X94228228Y-102051703D02*
G01*
X94383100Y-102115853D01*
X94522481Y-102208985D01*
X94641015Y-102327519D01*
X94734147Y-102466900D01*
X94798297Y-102621772D01*
X94831000Y-102786184D01*
X94831000Y-102953816D01*
X94798297Y-103118228D01*
X94734147Y-103273100D01*
X94641015Y-103412481D01*
X94522481Y-103531015D01*
X94383100Y-103624147D01*
X94228228Y-103688297D01*
X94063816Y-103721000D01*
X93896184Y-103721000D01*
X93731772Y-103688297D01*
X93576900Y-103624147D01*
X93437519Y-103531015D01*
X93318985Y-103412481D01*
X93225853Y-103273100D01*
X93161703Y-103118228D01*
X93129000Y-102953816D01*
X93129000Y-102786184D01*
X93161703Y-102621772D01*
X93225853Y-102466900D01*
X93318985Y-102327519D01*
X93437519Y-102208985D01*
X93576900Y-102115853D01*
X93731772Y-102051703D01*
X93896184Y-102019000D01*
X94063816Y-102019000D01*
X94228228Y-102051703D01*
G37*
G36*
X138222642Y-99357742D02*
G01*
X138370601Y-99419029D01*
X138503755Y-99507999D01*
X138617001Y-99621245D01*
X138705971Y-99754399D01*
X138767258Y-99902358D01*
X138798500Y-100059425D01*
X138798500Y-100219575D01*
X138767258Y-100376642D01*
X138705971Y-100524601D01*
X138617001Y-100657755D01*
X138503755Y-100771001D01*
X138370603Y-100859970D01*
X138360832Y-100864017D01*
X138339222Y-100875568D01*
X138320280Y-100891114D01*
X138304735Y-100910056D01*
X138293184Y-100931666D01*
X138286071Y-100955115D01*
X138283669Y-100979502D01*
X138286071Y-101003888D01*
X138293184Y-101027337D01*
X138304735Y-101048947D01*
X138320281Y-101067889D01*
X138339223Y-101083434D01*
X138360833Y-101094985D01*
X138384282Y-101102098D01*
X138408668Y-101104500D01*
X138798500Y-101104500D01*
X138798500Y-102730500D01*
X137172500Y-102730500D01*
X137172500Y-101104500D01*
X137562332Y-101104500D01*
X137586718Y-101102098D01*
X137610167Y-101094985D01*
X137631778Y-101083434D01*
X137650720Y-101067889D01*
X137666265Y-101048947D01*
X137677816Y-101027336D01*
X137684929Y-101003887D01*
X137687331Y-100979501D01*
X137684929Y-100955115D01*
X137677816Y-100931666D01*
X137666265Y-100910055D01*
X137650720Y-100891113D01*
X137631778Y-100875568D01*
X137610168Y-100864017D01*
X137600397Y-100859970D01*
X137467245Y-100771001D01*
X137353999Y-100657755D01*
X137265029Y-100524601D01*
X137203742Y-100376642D01*
X137172500Y-100219575D01*
X137172500Y-100059425D01*
X137203742Y-99902358D01*
X137265029Y-99754399D01*
X137353999Y-99621245D01*
X137467245Y-99507999D01*
X137600399Y-99419029D01*
X137748358Y-99357742D01*
X137905425Y-99326500D01*
X138065575Y-99326500D01*
X138222642Y-99357742D01*
G37*
G36*
X94228228Y-99511703D02*
G01*
X94383100Y-99575853D01*
X94522481Y-99668985D01*
X94641015Y-99787519D01*
X94734147Y-99926900D01*
X94798297Y-100081772D01*
X94831000Y-100246184D01*
X94831000Y-100413816D01*
X94798297Y-100578228D01*
X94734147Y-100733100D01*
X94641015Y-100872481D01*
X94522481Y-100991015D01*
X94383100Y-101084147D01*
X94228228Y-101148297D01*
X94063816Y-101181000D01*
X93896184Y-101181000D01*
X93731772Y-101148297D01*
X93576900Y-101084147D01*
X93437519Y-100991015D01*
X93318985Y-100872481D01*
X93225853Y-100733100D01*
X93161703Y-100578228D01*
X93129000Y-100413816D01*
X93129000Y-100246184D01*
X93161703Y-100081772D01*
X93225853Y-99926900D01*
X93318985Y-99787519D01*
X93437519Y-99668985D01*
X93576900Y-99575853D01*
X93731772Y-99511703D01*
X93896184Y-99479000D01*
X94063816Y-99479000D01*
X94228228Y-99511703D01*
G37*
G36*
X113278228Y-99511703D02*
G01*
X113433100Y-99575853D01*
X113572481Y-99668985D01*
X113691015Y-99787519D01*
X113784147Y-99926900D01*
X113848297Y-100081772D01*
X113881000Y-100246184D01*
X113881000Y-100413816D01*
X113848297Y-100578228D01*
X113784147Y-100733100D01*
X113691015Y-100872481D01*
X113572481Y-100991015D01*
X113433100Y-101084147D01*
X113278228Y-101148297D01*
X113113816Y-101181000D01*
X112946184Y-101181000D01*
X112781772Y-101148297D01*
X112626900Y-101084147D01*
X112487519Y-100991015D01*
X112368985Y-100872481D01*
X112275853Y-100733100D01*
X112211703Y-100578228D01*
X112179000Y-100413816D01*
X112179000Y-100246184D01*
X112211703Y-100081772D01*
X112275853Y-99926900D01*
X112368985Y-99787519D01*
X112487519Y-99668985D01*
X112626900Y-99575853D01*
X112781772Y-99511703D01*
X112946184Y-99479000D01*
X113113816Y-99479000D01*
X113278228Y-99511703D01*
G37*
G36*
X89148228Y-99511703D02*
G01*
X89303100Y-99575853D01*
X89442481Y-99668985D01*
X89561015Y-99787519D01*
X89654147Y-99926900D01*
X89718297Y-100081772D01*
X89751000Y-100246184D01*
X89751000Y-100413816D01*
X89718297Y-100578228D01*
X89654147Y-100733100D01*
X89561015Y-100872481D01*
X89442481Y-100991015D01*
X89303100Y-101084147D01*
X89148228Y-101148297D01*
X88983816Y-101181000D01*
X88816184Y-101181000D01*
X88651772Y-101148297D01*
X88496900Y-101084147D01*
X88357519Y-100991015D01*
X88238985Y-100872481D01*
X88145853Y-100733100D01*
X88081703Y-100578228D01*
X88049000Y-100413816D01*
X88049000Y-100246184D01*
X88081703Y-100081772D01*
X88145853Y-99926900D01*
X88238985Y-99787519D01*
X88357519Y-99668985D01*
X88496900Y-99575853D01*
X88651772Y-99511703D01*
X88816184Y-99479000D01*
X88983816Y-99479000D01*
X89148228Y-99511703D01*
G37*
G36*
X108198228Y-99511703D02*
G01*
X108353100Y-99575853D01*
X108492481Y-99668985D01*
X108611015Y-99787519D01*
X108704147Y-99926900D01*
X108768297Y-100081772D01*
X108801000Y-100246184D01*
X108801000Y-100413816D01*
X108768297Y-100578228D01*
X108704147Y-100733100D01*
X108611015Y-100872481D01*
X108492481Y-100991015D01*
X108353100Y-101084147D01*
X108198228Y-101148297D01*
X108033816Y-101181000D01*
X107866184Y-101181000D01*
X107701772Y-101148297D01*
X107546900Y-101084147D01*
X107407519Y-100991015D01*
X107288985Y-100872481D01*
X107195853Y-100733100D01*
X107131703Y-100578228D01*
X107099000Y-100413816D01*
X107099000Y-100246184D01*
X107131703Y-100081772D01*
X107195853Y-99926900D01*
X107288985Y-99787519D01*
X107407519Y-99668985D01*
X107546900Y-99575853D01*
X107701772Y-99511703D01*
X107866184Y-99479000D01*
X108033816Y-99479000D01*
X108198228Y-99511703D01*
G37*
G36*
X145772713Y-97679249D02*
G01*
X145867152Y-97707897D01*
X145954187Y-97754418D01*
X146030475Y-97817025D01*
X146093082Y-97893313D01*
X146139603Y-97980348D01*
X146168251Y-98074787D01*
X146177924Y-98173000D01*
X146168251Y-98271213D01*
X146139603Y-98365652D01*
X146093082Y-98452687D01*
X146030475Y-98528975D01*
X145954187Y-98591582D01*
X145867152Y-98638103D01*
X145772713Y-98666751D01*
X145699112Y-98674000D01*
X144749888Y-98674000D01*
X144676287Y-98666751D01*
X144581848Y-98638103D01*
X144494813Y-98591582D01*
X144418525Y-98528975D01*
X144355918Y-98452687D01*
X144309397Y-98365652D01*
X144280749Y-98271213D01*
X144271076Y-98173000D01*
X144280749Y-98074787D01*
X144309397Y-97980348D01*
X144355918Y-97893313D01*
X144418525Y-97817025D01*
X144494813Y-97754418D01*
X144581848Y-97707897D01*
X144676287Y-97679249D01*
X144749888Y-97672000D01*
X145699112Y-97672000D01*
X145772713Y-97679249D01*
G37*
G36*
X89751000Y-98641000D02*
G01*
X88049000Y-98641000D01*
X88049000Y-96939000D01*
X89751000Y-96939000D01*
X89751000Y-98641000D01*
G37*
G36*
X94228228Y-96971703D02*
G01*
X94383100Y-97035853D01*
X94522481Y-97128985D01*
X94641015Y-97247519D01*
X94734147Y-97386900D01*
X94798297Y-97541772D01*
X94831000Y-97706184D01*
X94831000Y-97873816D01*
X94798297Y-98038228D01*
X94734147Y-98193100D01*
X94641015Y-98332481D01*
X94522481Y-98451015D01*
X94383100Y-98544147D01*
X94228228Y-98608297D01*
X94063816Y-98641000D01*
X93896184Y-98641000D01*
X93731772Y-98608297D01*
X93576900Y-98544147D01*
X93437519Y-98451015D01*
X93318985Y-98332481D01*
X93225853Y-98193100D01*
X93161703Y-98038228D01*
X93129000Y-97873816D01*
X93129000Y-97706184D01*
X93161703Y-97541772D01*
X93225853Y-97386900D01*
X93318985Y-97247519D01*
X93437519Y-97128985D01*
X93576900Y-97035853D01*
X93731772Y-96971703D01*
X93896184Y-96939000D01*
X94063816Y-96939000D01*
X94228228Y-96971703D01*
G37*
G36*
X108801000Y-98641000D02*
G01*
X107099000Y-98641000D01*
X107099000Y-96939000D01*
X108801000Y-96939000D01*
X108801000Y-98641000D01*
G37*
G36*
X113278228Y-96971703D02*
G01*
X113433100Y-97035853D01*
X113572481Y-97128985D01*
X113691015Y-97247519D01*
X113784147Y-97386900D01*
X113848297Y-97541772D01*
X113881000Y-97706184D01*
X113881000Y-97873816D01*
X113848297Y-98038228D01*
X113784147Y-98193100D01*
X113691015Y-98332481D01*
X113572481Y-98451015D01*
X113433100Y-98544147D01*
X113278228Y-98608297D01*
X113113816Y-98641000D01*
X112946184Y-98641000D01*
X112781772Y-98608297D01*
X112626900Y-98544147D01*
X112487519Y-98451015D01*
X112368985Y-98332481D01*
X112275853Y-98193100D01*
X112211703Y-98038228D01*
X112179000Y-97873816D01*
X112179000Y-97706184D01*
X112211703Y-97541772D01*
X112275853Y-97386900D01*
X112368985Y-97247519D01*
X112487519Y-97128985D01*
X112626900Y-97035853D01*
X112781772Y-96971703D01*
X112946184Y-96939000D01*
X113113816Y-96939000D01*
X113278228Y-96971703D01*
G37*
G36*
X144127098Y-89622033D02*
G01*
X144591350Y-89814332D01*
X144591352Y-89814333D01*
X145009168Y-90093509D01*
X145364491Y-90448832D01*
X145643667Y-90866648D01*
X145643668Y-90866650D01*
X145835967Y-91330902D01*
X145934000Y-91823747D01*
X145934000Y-92326253D01*
X145835967Y-92819098D01*
X145696273Y-93156350D01*
X145643667Y-93283352D01*
X145364491Y-93701168D01*
X145009168Y-94056491D01*
X144591352Y-94335667D01*
X144591351Y-94335668D01*
X144591350Y-94335668D01*
X144127098Y-94527967D01*
X143634253Y-94626000D01*
X143131747Y-94626000D01*
X142638902Y-94527967D01*
X142174650Y-94335668D01*
X142174649Y-94335668D01*
X142174648Y-94335667D01*
X141756832Y-94056491D01*
X141401509Y-93701168D01*
X141122333Y-93283352D01*
X141069727Y-93156350D01*
X140930033Y-92819098D01*
X140832000Y-92326253D01*
X140832000Y-91823747D01*
X140930033Y-91330902D01*
X141122332Y-90866650D01*
X141122333Y-90866648D01*
X141401509Y-90448832D01*
X141756832Y-90093509D01*
X142174648Y-89814333D01*
X142174650Y-89814332D01*
X142638902Y-89622033D01*
X143131747Y-89524000D01*
X143634253Y-89524000D01*
X144127098Y-89622033D01*
G37*
G36*
X65895098Y-89495033D02*
G01*
X66201706Y-89622034D01*
X66359352Y-89687333D01*
X66777168Y-89966509D01*
X67132491Y-90321832D01*
X67217350Y-90448833D01*
X67411668Y-90739650D01*
X67603967Y-91203902D01*
X67702000Y-91696747D01*
X67702000Y-92199253D01*
X67603967Y-92692098D01*
X67411668Y-93156350D01*
X67411667Y-93156352D01*
X67132491Y-93574168D01*
X66777168Y-93929491D01*
X66359352Y-94208667D01*
X66359351Y-94208668D01*
X66359350Y-94208668D01*
X65895098Y-94400967D01*
X65402253Y-94499000D01*
X64899747Y-94499000D01*
X64406902Y-94400967D01*
X63942650Y-94208668D01*
X63942649Y-94208668D01*
X63942648Y-94208667D01*
X63524832Y-93929491D01*
X63169509Y-93574168D01*
X62890333Y-93156352D01*
X62890332Y-93156350D01*
X62698033Y-92692098D01*
X62600000Y-92199253D01*
X62600000Y-91696747D01*
X62698033Y-91203902D01*
X62890332Y-90739650D01*
X63084650Y-90448833D01*
X63169509Y-90321832D01*
X63524832Y-89966509D01*
X63942648Y-89687333D01*
X64100294Y-89622034D01*
X64406902Y-89495033D01*
X64899747Y-89397000D01*
X65402253Y-89397000D01*
X65895098Y-89495033D01*
G37*
M02*
